<svg xmlns="http://www.w3.org/2000/svg" width="20" height="20" viewBox="0 0 20 20"><defs><style>.a{fill:#fff;}</style></defs><g transform="translate(0 -0.008)"><path class="a" d="M285.882,209.259h-7.924a.626.626,0,1,1,0-1.251h7.924a.626.626,0,1,1,0,1.251Zm0,0" transform="translate(-266.508 -199.876)"/><path class="a" d="M400.629,135.478a.626.626,0,0,1-.442-1.069l2.686-2.686-2.686-2.686a.626.626,0,1,1,.885-.885l3.128,3.128a.626.626,0,0,1,0,.885l-3.128,3.128A.622.622,0,0,1,400.629,135.478Zm0,0" transform="translate(-384.384 -122.966)"/><path class="a" d="M6.673,20.008a1.72,1.72,0,0,1-.517-.078L1.136,18.26A1.682,1.682,0,0,1,0,16.675v-15A1.669,1.669,0,0,1,1.668.008a1.722,1.722,0,0,1,.517.078L7.2,1.756A1.682,1.682,0,0,1,8.341,3.341v15a1.669,1.669,0,0,1-1.668,1.667Zm-5-18.75a.418.418,0,0,0-.417.417v15a.433.433,0,0,0,.289.4l5,1.663a.453.453,0,0,0,.136.018.418.418,0,0,0,.417-.417v-15a.433.433,0,0,0-.289-.4l-5-1.663a.453.453,0,0,0-.136-.018Zm0,0" transform="translate(0 0)"/><path class="a" d="M38.345,6.681a.626.626,0,0,1-.626-.626V2.3a1.044,1.044,0,0,0-1.043-1.043H27.293a.626.626,0,1,1,0-1.251h9.384A2.3,2.3,0,0,1,38.971,2.3V6.055A.626.626,0,0,1,38.345,6.681Zm0,0" transform="translate(-25.626)"/><path class="a" d="M185.294,284.013h-3.337a.626.626,0,1,1,0-1.251h3.337a1.044,1.044,0,0,0,1.043-1.043v-3.753a.626.626,0,0,1,1.251,0v3.753A2.3,2.3,0,0,1,185.294,284.013Zm0,0" transform="translate(-174.252 -266.507)"/></g></svg>