<svg xmlns="http://www.w3.org/2000/svg" width="22" height="22" viewBox="0 0 22 22"><defs><style>.a{fill:#fff;}</style></defs><path class="a" d="M11,21.967h-.086a2.547,2.547,0,0,1-2.529-2.262.86.86,0,0,1,.941-.951.859.859,0,0,1,.938.756.833.833,0,0,0,.736.737.833.833,0,0,0,.736-.737.859.859,0,0,1,.938-.756.86.86,0,0,1,.941.951,2.547,2.547,0,0,1-2.529,2.262Zm8.421-4.117H2.579A2.579,2.579,0,0,1,0,15.275q0-.053,0-.105a2.581,2.581,0,0,1,2.276-2.452l.006-.047q.005-.038.013-.074l.807-5.748A7.989,7.989,0,0,1,10.329,0a6.991,6.991,0,0,1,1.478.012,7.993,7.993,0,0,1,7.087,6.834L19.7,12.6q.008.037.014.075l.007.047A2.58,2.58,0,0,1,22,15.2q0,.037,0,.075a2.574,2.574,0,0,1-2.578,2.575ZM2.579,16.133H19.421a.858.858,0,1,0,0-1.716h-.533a.859.859,0,0,1-.77-.736l-.925-6.59a6.269,6.269,0,0,0-5.661-5.374H10.468A6.269,6.269,0,0,0,4.807,7.087l-.925,6.59a.86.86,0,0,1-.77.736H2.579a.858.858,0,1,0,0,1.716Zm5.843-2.7H6.66a.858.858,0,1,1,0-1.716h8.68a.858.858,0,1,1,0,1.716Z" transform="translate(0 0.031)"/></svg>