<svg xmlns="http://www.w3.org/2000/svg" width="22.001" height="22" viewBox="0 0 22.001 22"><defs><style>.a{fill:#fff;}</style></defs><path class="a" d="M16.844,22.007H5.156A5.162,5.162,0,0,1,0,16.851V11.695A4.289,4.289,0,0,1,3.395,7.484V5.163A5.162,5.162,0,0,1,8.551.007h8.293A5.162,5.162,0,0,1,22,5.163V16.851A5.162,5.162,0,0,1,16.844,22.007ZM3.395,9.263a2.545,2.545,0,0,0-1.676,2.432v5.156a3.441,3.441,0,0,0,3.438,3.438H16.844a3.441,3.441,0,0,0,3.437-3.437V5.163a3.441,3.441,0,0,0-3.437-3.438H8.551A3.441,3.441,0,0,0,5.113,5.163V17.023a.859.859,0,0,1-1.719,0ZM18.563,5.55a.859.859,0,0,0-.859-.859H7.692a.859.859,0,0,0,0,1.719H17.7A.859.859,0,0,0,18.563,5.55Zm.043,8.035a.859.859,0,0,0-.859-.859H14.395a.859.859,0,0,0,0,1.719h3.352A.859.859,0,0,0,18.606,13.585Zm-6.746,0A.859.859,0,0,0,11,12.726H7.692a.859.859,0,0,0,0,1.719H11A.859.859,0,0,0,11.86,13.585Zm0,3.437A.859.859,0,0,0,11,16.163H7.692a.859.859,0,0,0,0,1.719H11A.859.859,0,0,0,11.86,17.023Zm4.984,0a.859.859,0,0,0-.859-.859h-1.59a.859.859,0,0,0,0,1.719h1.59A.859.859,0,0,0,16.844,17.023Zm.9-6.016h-6.23a.859.859,0,0,1,0-1.719h6.23A.859.859,0,0,1,17.746,11.007ZM6.832,10.062A1.074,1.074,0,1,0,7.906,8.987,1.074,1.074,0,0,0,6.832,10.062Z" transform="translate(0 -0.007)"/></svg>