<svg xmlns="http://www.w3.org/2000/svg" width="20" height="20" viewBox="0 0 20 20"><defs><style>.a{fill:#fff;}</style></defs><path class="a" d="M10.117,20H4.687A4.693,4.693,0,0,1,0,15.312V4.687A4.693,4.693,0,0,1,4.687,0H8.4a.781.781,0,1,1,0,1.562H4.687A3.129,3.129,0,0,0,1.562,4.687V15.312a3.129,3.129,0,0,0,3.125,3.125h5.43a3.129,3.129,0,0,0,3.125-3.125.781.781,0,0,1,1.563,0A4.693,4.693,0,0,1,10.117,20ZM20,7.966a2.273,2.273,0,0,0-1.255-2.027l-.277-2.124V3.807A4.4,4.4,0,0,0,16.555.745a4.6,4.6,0,0,0-5.019,0A4.4,4.4,0,0,0,9.624,3.807v.008L9.346,5.957a2.265,2.265,0,0,0,1.048,4.273h7.342A2.267,2.267,0,0,0,20,7.966ZM12.4,2.047a3.038,3.038,0,0,1,3.291,0,2.839,2.839,0,0,1,1.228,1.974l.338,2.593a.781.781,0,0,0,.62.665.7.7,0,0,1-.141,1.39H10.394a.7.7,0,0,1-.158-1.385.781.781,0,0,0,.6-.661l.336-2.6A2.839,2.839,0,0,1,12.4,2.047Zm3.344,4.438a.781.781,0,0,0-.781-.781H13.009a.781.781,0,0,0,0,1.563h1.953A.781.781,0,0,0,15.744,6.484ZM8.437,15.7a.977.977,0,1,1-.977-.977A.977.977,0,0,1,8.437,15.7Zm7.574-4.088a.781.781,0,0,0-1.552-.183.4.4,0,0,1-.792,0,.781.781,0,0,0-1.552.183,1.965,1.965,0,0,0,3.9,0Z"/></svg>