<svg xmlns="http://www.w3.org/2000/svg" width="20" height="19" viewBox="0 0 20 19"><defs><style>.a{fill:#fff;}</style></defs><path class="a" d="M15.313,14H4.688A4.7,4.7,0,0,0,0,18.711V25.15a4.7,4.7,0,0,0,4.687,4.71H15.313A4.7,4.7,0,0,0,20,25.149V18.711A4.7,4.7,0,0,0,15.313,14Zm3.125,11.149a3.136,3.136,0,0,1-3.125,3.14H4.687a3.136,3.136,0,0,1-3.124-3.14V18.711a3.136,3.136,0,0,1,3.125-3.14H15.313a3.136,3.136,0,0,1,3.125,3.14Zm-3.906,7.066A.783.783,0,0,1,13.75,33H6.25a.785.785,0,0,1,0-1.57h7.5A.783.783,0,0,1,14.531,32.215ZM13.9,18.03a5.534,5.534,0,0,1,0,7.789.779.779,0,0,1-1.1,0,.788.788,0,0,1,0-1.11,3.956,3.956,0,0,0,0-5.569.788.788,0,0,1,0-1.11A.779.779,0,0,1,13.9,18.03ZM7.2,19.14a3.956,3.956,0,0,0,0,5.569.788.788,0,0,1,0,1.11.779.779,0,0,1-1.1,0,5.533,5.533,0,0,1,0-7.789A.783.783,0,0,1,7.2,19.14ZM10,24.246a2.344,2.344,0,1,1,2.344-2.355A2.352,2.352,0,0,1,10,24.246Zm0-3.14a.781.781,0,1,0,.781.785A.784.784,0,0,0,10,21.105Z" transform="translate(0 -14)"/></svg>