<svg xmlns="http://www.w3.org/2000/svg" width="20" height="20" viewBox="0 0 20 20"><defs><style>.a{fill:#fff;}</style></defs><path class="a" d="M12.4,1.216A1.818,1.818,0,0,0,10.921.809a4.019,4.019,0,0,1-.648.056A4.065,4.065,0,0,1,8.583.548,2.352,2.352,0,0,0,5,2.557V8.313a3.282,3.282,0,1,0,1.559,2.88V2.557a.793.793,0,0,1,1.205-.674,5.443,5.443,0,0,0,2.506.546,5.632,5.632,0,0,0,.906-.077.257.257,0,0,1,.211.059.263.263,0,0,1,.094.2V4.58a.262.262,0,0,1-.184.253,3.934,3.934,0,0,1-1.066.136h0A4.407,4.407,0,0,1,9.01,4.74a.782.782,0,0,0-.522,1.474,5.862,5.862,0,0,0,1.746.319h0a5.452,5.452,0,0,0,1.5-.2A1.833,1.833,0,0,0,13.047,4.58V2.613a1.827,1.827,0,0,0-.647-1.4ZM3.281,12.827A1.719,1.719,0,1,1,5,11.107,1.721,1.721,0,0,1,3.281,12.827Zm16.072-5a1.819,1.819,0,0,0-1.479-.407,4.031,4.031,0,0,1-.649.056h-.006a4.025,4.025,0,0,1-1.683-.316,2.352,2.352,0,0,0-3.58,2.008v4.974a3.281,3.281,0,1,0,1.558,2.88c0-.028,0-7.855,0-7.855a.79.79,0,0,1,1.2-.674,5.416,5.416,0,0,0,2.5.546h.008a5.619,5.619,0,0,0,.9-.077.257.257,0,0,1,.211.059.263.263,0,0,1,.094.2v1.968a.262.262,0,0,1-.184.253,3.934,3.934,0,0,1-1.066.136h0a4.407,4.407,0,0,1-1.224-.229.782.782,0,0,0-.522,1.474,5.862,5.862,0,0,0,1.746.319h0a5.452,5.452,0,0,0,1.5-.2A1.833,1.833,0,0,0,20,11.187V9.219a1.827,1.827,0,0,0-.647-1.4ZM10.234,18.652a1.719,1.719,0,1,1,1.719-1.72A1.721,1.721,0,0,1,10.234,18.652Z" transform="translate(0 -0.198)"/></svg>