<svg xmlns="http://www.w3.org/2000/svg" width="19.87" height="22" viewBox="0 0 19.87 22"><defs><style>.a{fill:#fff;}</style></defs><path class="a" d="M34.707,22a2.583,2.583,0,0,1-2.58-2.58V19.4a.738.738,0,0,0-.473-.69,8.278,8.278,0,0,1-2.181-1.27.743.743,0,0,0-.839-.075l-.005,0a2.59,2.59,0,0,1-3.518-.974,2.573,2.573,0,0,1,.977-3.513l.011-.006a.736.736,0,0,0,.369-.733,8.38,8.38,0,0,1,.007-2.366.746.746,0,0,0-.376-.748l-.014-.008a2.573,2.573,0,0,1-.974-3.512,2.59,2.59,0,0,1,3.518-.974l.052.029a.747.747,0,0,0,.838-.074,8.281,8.281,0,0,1,2.132-1.232.741.741,0,0,0,.476-.691,2.58,2.58,0,0,1,5.159,0v.017a.742.742,0,0,0,.473.69A8.283,8.283,0,0,1,39.868,4.5a.747.747,0,0,0,.839.076l.075-.043a2.591,2.591,0,0,1,3.521.972,2.573,2.573,0,0,1-.977,3.513l-.059.033a.733.733,0,0,0-.369.733,8.39,8.39,0,0,1,.009,2.33.738.738,0,0,0,.369.733l.052.029a2.561,2.561,0,0,1,1.218,1.556,2.588,2.588,0,0,1-3.76,2.931l-.03-.017a.747.747,0,0,0-.844.078,8.282,8.282,0,0,1-2.155,1.265.739.739,0,0,0-.47.688v.039A2.583,2.583,0,0,1,34.707,22ZM29,15.546a2.471,2.471,0,0,1,1.556.555,6.562,6.562,0,0,0,1.728,1.007A2.448,2.448,0,0,1,33.848,19.4v.022a.86.86,0,0,0,1.72,0v-.039a2.45,2.45,0,0,1,1.553-2.286,6.565,6.565,0,0,0,1.708-1,2.456,2.456,0,0,1,2.776-.239l.027.016a.867.867,0,0,0,1.177-.326.853.853,0,0,0-.326-1.166h0l-.053-.03A2.44,2.44,0,0,1,41.2,11.884a6.667,6.667,0,0,0-.007-1.851,2.465,2.465,0,0,1,1.222-2.475l.062-.035a.853.853,0,0,0,.329-1.167.868.868,0,0,0-1.179-.325l-.073.041a2.458,2.458,0,0,1-2.763-.229,6.566,6.566,0,0,0-1.671-.974,2.453,2.453,0,0,1-1.555-2.287V2.566a.86.86,0,0,0-1.72,0,2.451,2.451,0,0,1-1.567,2.292,6.564,6.564,0,0,0-1.69.976,2.459,2.459,0,0,1-2.759.224l-.049-.028a.867.867,0,0,0-1.176.326.853.853,0,0,0,.326,1.166l.017.009a2.477,2.477,0,0,1,1.228,2.492,6.658,6.658,0,0,0-.006,1.879,2.437,2.437,0,0,1-1.223,2.467l-.013.007a.854.854,0,0,0-.329,1.167.868.868,0,0,0,1.179.325A2.452,2.452,0,0,1,29,15.546Zm5.708-.039a4.514,4.514,0,1,1,4.514-4.514A4.52,4.52,0,0,1,34.707,15.507Zm0-7.309A2.795,2.795,0,1,0,37.5,10.992,2.8,2.8,0,0,0,34.707,8.2Z" transform="translate(-24.775 0.001)"/></svg>