<svg xmlns="http://www.w3.org/2000/svg" width="24" height="23.996" viewBox="0 0 24 23.996"><defs><style>.a{fill:#fff;}</style></defs><path class="a" d="M18.375,24.034H5.625A5.631,5.631,0,0,1,0,18.409V10.521A5.657,5.657,0,0,1,2.214,6.049L8.589,1.186a5.639,5.639,0,0,1,6.823,0L17.438,2.73v-1.2a.938.938,0,0,1,1.875,0v3.09a.938.938,0,0,1-1.506.746L14.274,2.677a3.759,3.759,0,0,0-4.549,0L3.351,7.539a3.771,3.771,0,0,0-1.476,2.982v7.888a3.754,3.754,0,0,0,3.75,3.75h12.75a3.754,3.754,0,0,0,3.75-3.75V10.521a3.774,3.774,0,0,0-1.459-2.992A.937.937,0,1,1,21.8,6.038,5.659,5.659,0,0,1,24,10.521v7.888A5.631,5.631,0,0,1,18.375,24.034Z" transform="translate(0 -0.037)"/><path class="a" d="M193.332,232.128a1.166,1.166,0,1,1-1.166-1.166A1.166,1.166,0,0,1,193.332,232.128Zm2.565-1.166a1.166,1.166,0,1,0,1.166,1.166A1.166,1.166,0,0,0,195.9,230.962Zm-3.732,3.732a1.166,1.166,0,1,0,1.166,1.166A1.166,1.166,0,0,0,192.166,234.694Zm3.732,0a1.166,1.166,0,1,0,1.166,1.166A1.166,1.166,0,0,0,195.9,234.694Z" transform="translate(-182.032 -220.119)"/></svg>