<svg xmlns="http://www.w3.org/2000/svg" width="24" height="24" viewBox="0 0 24 24"><defs><style>.a{fill:#fff;opacity:0.5;}</style></defs><path class="a" d="M24,9.469v8.906A5.631,5.631,0,0,1,18.375,24H5.625A5.631,5.631,0,0,1,0,18.375V5.625A5.631,5.631,0,0,1,5.625,0h4.453a5.636,5.636,0,0,1,4.176,1.856.937.937,0,0,1-1.392,1.257,3.758,3.758,0,0,0-2.784-1.238H5.625a3.754,3.754,0,0,0-3.75,3.75v12.75a3.754,3.754,0,0,0,3.75,3.75h12.75a3.754,3.754,0,0,0,3.75-3.75V9.469a2.816,2.816,0,0,0-2.812-2.812H8.531A2.816,2.816,0,0,0,5.719,9.469v9.422a.938.938,0,0,1-1.875,0V9.469A4.693,4.693,0,0,1,8.531,4.781H19.313A4.693,4.693,0,0,1,24,9.469ZM12.281,19.594a2.813,2.813,0,1,1,.938-5.464v-2.6a1.731,1.731,0,0,1,2.633-1.476.505.505,0,0,0,.266.072.641.641,0,0,0,.349-.147.938.938,0,0,1,1.1,1.52A2.453,2.453,0,0,1,16.1,12a2.349,2.349,0,0,1-1.01-.229v5.013a2.816,2.816,0,0,1-2.812,2.813Zm0-1.875a.938.938,0,1,0-.937-.937A.939.939,0,0,0,12.281,17.719Z"/></svg>