<svg xmlns="http://www.w3.org/2000/svg" width="20.005" height="20.002" viewBox="0 0 20.005 20.002"><defs><style>.a{fill:#fff;}</style></defs><path class="a" d="M18.16,5.048,12.846.995a4.7,4.7,0,0,0-5.687,0L1.845,5.048A4.715,4.715,0,0,0,0,8.776v6.575a4.694,4.694,0,0,0,4.689,4.689H15.316A4.694,4.694,0,0,0,20,15.351V8.776A4.715,4.715,0,0,0,18.16,5.048Zm.282,10.3a3.129,3.129,0,0,1-3.126,3.126H4.689a3.129,3.129,0,0,1-3.126-3.126V8.776a3.144,3.144,0,0,1,1.23-2.485L8.107,2.238a3.133,3.133,0,0,1,3.791,0l5.314,4.053a3.144,3.144,0,0,1,1.23,2.485ZM12.386,8.957V7.927a2.344,2.344,0,1,0-4.689,0V8.944a3.131,3.131,0,0,0-2.149,2.969v1.055a3.129,3.129,0,0,0,3.126,3.126h2.7A3.129,3.129,0,0,0,14.5,12.967V11.912A3.131,3.131,0,0,0,12.386,8.957ZM10.042,7.145a.782.782,0,0,1,.781.781v.86H9.26v-.86A.782.782,0,0,1,10.042,7.145Zm2.891,5.822A1.565,1.565,0,0,1,11.37,14.53h-2.7a1.565,1.565,0,0,1-1.563-1.563V11.912a1.565,1.565,0,0,1,1.563-1.563h2.7a1.565,1.565,0,0,1,1.563,1.563Zm-1.915-.508a.977.977,0,1,1-.977-.977A.977.977,0,0,1,11.018,12.459Z" transform="translate(0 -0.037)"/></svg>