<svg xmlns="http://www.w3.org/2000/svg" width="20" height="20" viewBox="0 0 20 20"><defs><style>.a{fill:#fff;}</style></defs><g transform="translate(1 1)"><g transform="translate(-1 -1)"><path class="a" d="M4.849-1H1.507A2.506,2.506,0,0,0-1,1.507V4.849A2.506,2.506,0,0,0,1.507,7.356H4.849A2.506,2.506,0,0,0,7.356,4.849V1.507A2.506,2.506,0,0,0,4.849-1Zm.836,5.849a.835.835,0,0,1-.836.836H1.507a.835.835,0,0,1-.836-.836V1.507A.835.835,0,0,1,1.507.671H4.849a.835.835,0,0,1,.836.836V4.849Z" transform="translate(1 1)"/><path class="a" d="M303.516-1h-3.342a2.506,2.506,0,0,0-2.507,2.507V4.849a2.506,2.506,0,0,0,2.507,2.507h3.342a2.506,2.506,0,0,0,2.507-2.507V1.507A2.506,2.506,0,0,0,303.516-1Zm.836,5.849a.835.835,0,0,1-.836.836h-3.342a.835.835,0,0,1-.836-.836V1.507a.835.835,0,0,1,.836-.836h3.342a.835.835,0,0,1,.836.836Z" transform="translate(-286.023 1)"/><path class="a" d="M4.849,297.667H1.507A2.506,2.506,0,0,0-1,300.174v3.342a2.506,2.506,0,0,0,2.507,2.507H4.849a2.506,2.506,0,0,0,2.507-2.507v-3.342A2.506,2.506,0,0,0,4.849,297.667Zm.836,5.849a.835.835,0,0,1-.836.836H1.507a.835.835,0,0,1-.836-.836v-3.342a.835.835,0,0,1,.836-.836H4.849a.835.835,0,0,1,.836.836v3.342Z" transform="translate(1 -286.023)"/><path class="a" d="M305.188,301.009h-2.507V298.5a.836.836,0,0,0-1.671,0v2.507H298.5a.836.836,0,1,0,0,1.671h2.507v2.507a.836.836,0,0,0,1.671,0v-2.507h2.507a.836.836,0,0,0,0-1.671Z" transform="translate(-286.023 -286.023)"/></g></g></svg>