<svg xmlns="http://www.w3.org/2000/svg" width="20" height="20" viewBox="0 0 20 20"><defs><style>.a{fill:#fff;}</style></defs><path class="a" d="M4.852,20a4.8,4.8,0,0,1-3.415-1.437A4.792,4.792,0,0,1,0,14.968a5.761,5.761,0,0,1,1.814-3.857L3.86,9.06a.781.781,0,0,1,1.107,1.1L2.923,12.215c-1.657,1.657-1.813,3.813-.381,5.245s3.588,1.275,5.243-.38l2.808-2.808a4.234,4.234,0,0,0,1.357-2.81,3.246,3.246,0,0,0-.977-2.433,3.458,3.458,0,0,0-.732-.561.781.781,0,0,1,.773-1.358,5.021,5.021,0,0,1,1.063.814,4.792,4.792,0,0,1,1.434,3.6A5.761,5.761,0,0,1,11.7,15.376L8.89,18.184A5.762,5.762,0,0,1,5.033,20C4.972,20,4.912,20,4.852,20Zm5.2-7.4a.781.781,0,0,0-.292-1.066,3.458,3.458,0,0,1-.732-.561c-1.432-1.432-1.275-3.588.38-5.244l2.808-2.808c1.656-1.656,3.812-1.812,5.243-.38s1.275,3.588-.381,5.245L15.032,9.841a.781.781,0,1,0,1.107,1.1l2.043-2.052A5.762,5.762,0,0,0,20,5.035a4.792,4.792,0,0,0-1.434-3.6,4.793,4.793,0,0,0-3.6-1.434,5.761,5.761,0,0,0-3.857,1.814L8.3,4.627A5.762,5.762,0,0,0,6.487,8.484a4.792,4.792,0,0,0,1.434,3.6,5.021,5.021,0,0,0,1.063.814A.781.781,0,0,0,10.05,12.6Z" transform="translate(0.001 -0.002)"/></svg>