<svg xmlns="http://www.w3.org/2000/svg" width="17.466" height="20" viewBox="0 0 17.466 20"><defs><style>.a{fill:#fff;}</style></defs><g transform="translate(-32.436 0.001)"><g transform="translate(32.436 -0.001)"><g transform="translate(0 0)"><path class="a" d="M49.438,3.614,41.446.066a.78.78,0,0,0-.635,0L32.9,3.615a.78.78,0,0,0-.461.711v6.16a10.042,10.042,0,0,0,2.524,6.529,9.119,9.119,0,0,0,2.765,2.155A7.648,7.648,0,0,0,41.169,20a7.9,7.9,0,0,0,4.669-1.553.78.78,0,0,0-.918-1.261,6.356,6.356,0,0,1-3.752,1.254C37.415,18.44,34,14.649,34,10.487V4.832l7.136-3.2,7.211,3.2v5.653a8.255,8.255,0,0,1-1.193,4.2.78.78,0,1,0,1.341.8,9.814,9.814,0,0,0,1.412-5V4.327A.78.78,0,0,0,49.438,3.614Z" transform="translate(-32.436 0.001)"/><path class="a" d="M139.942,160.985l-3.551,5.879a.385.385,0,0,1-.284.167.369.369,0,0,1-.308-.131l-2.295-2.655a.644.644,0,0,0-1.019.015.969.969,0,0,0,.012,1.208l2.3,2.659.006.007a1.715,1.715,0,0,0,1.278.605c.041,0,.081,0,.122,0a1.787,1.787,0,0,0,1.321-.815l.024-.038,3.565-5.9a.96.96,0,0,0-.166-1.191A.651.651,0,0,0,139.942,160.985Z" transform="translate(-128.009 -154.705)"/></g></g></g></svg>