<svg xmlns="http://www.w3.org/2000/svg" width="14.5" height="13" viewBox="0 0 14.5 13"><defs><style>.a,.b{fill:none;}.a{stroke-miterlimit:10;}.b{stroke:#fff;stroke-linecap:round;stroke-width:2px;}.c,.d{stroke:none;}.d{fill:#fff;}</style></defs><g transform="translate(-222 -2028.5)"><g class="a" transform="translate(245.5 2050) rotate(180)"><path class="c" d="M10.1,21a1.036,1.036,0,0,1-.579-.179A1.231,1.231,0,0,1,9,19.8V10.2a1.23,1.23,0,0,1,.521-1.021,1.026,1.026,0,0,1,1.07-.053l8.8,4.8a1.253,1.253,0,0,1,0,2.148l-8.8,4.8A1.03,1.03,0,0,1,10.1,21Z"/><path class="d" d="M 10.99999809265137 18.37367820739746 L 17.18436813354492 15.00042915344238 L 10.99999809265137 11.62717723846436 L 10.99999809265137 18.37367820739746 M 10.1000280380249 21.00053215026855 C 9.898728370666504 21.00053215026855 9.698517799377441 20.94053268432617 9.521417617797852 20.82173347473145 C 9.197527885437012 20.60248184204102 9.000368118286133 20.21633338928223 8.999998092651367 19.80051231384277 L 8.999998092651367 10.20034217834473 C 8.999998092651367 9.783932685852051 9.19800853729248 9.39753246307373 9.521417617797852 9.179122924804688 C 9.698348045349121 9.060453414916992 9.899064064025879 9.000534057617188 10.10029697418213 9.000534057617188 C 10.26822853088379 9.000534057617188 10.4365062713623 9.042235374450684 10.59174823760986 9.126322746276855 L 19.39201736450195 13.92641258239746 C 19.76467895507813 14.13004302978516 19.99999809265137 14.54575252532959 19.99999809265137 15.00042247772217 C 19.99999809265137 15.45510292053223 19.76466751098633 15.87081241607666 19.39201736450195 16.07444190979004 L 10.59174823760986 20.87453269958496 C 10.43774795532227 20.95853233337402 10.26723766326904 21.00053215026855 10.1000280380249 21.00053215026855 Z"/></g><path class="b" d="M0,11V0" transform="translate(223 2040.5) rotate(180)"/></g></svg>