<svg xmlns="http://www.w3.org/2000/svg" width="14.5" height="13" viewBox="0 0 14.5 13"><defs><style>.a,.b{fill:none;}.a{stroke-miterlimit:10;}.b{stroke:#fff;stroke-linecap:round;stroke-width:2px;}.c,.d{stroke:none;}.d{fill:#fff;}</style></defs><g transform="translate(0 0.5)"><g class="a" transform="translate(0 0)"><path class="c" d="M1.1,0A1.036,1.036,0,0,0,.521.179,1.231,1.231,0,0,0,0,1.2v9.6a1.23,1.23,0,0,0,.521,1.021,1.026,1.026,0,0,0,1.07.053l8.8-4.8a1.253,1.253,0,0,0,0-2.148l-8.8-4.8A1.03,1.03,0,0,0,1.1,0Z"/><path class="d" d="M 1.999999046325684 2.62685489654541 L 1.999999046325684 9.373355865478516 L 8.184361457824707 6.000108242034912 L 1.999999046325684 2.62685489654541 M 1.100029945373535 9.5367431640625e-07 C 1.267239570617676 9.5367431640625e-07 1.437739372253418 0.04200077056884766 1.59174919128418 0.1260013580322266 L 10.39200973510742 4.926091194152832 C 10.76466941833496 5.129721164703369 11 5.545431137084961 11 6.000111103057861 C 11 6.454781055450439 10.76466941833496 6.870491027832031 10.39200973510742 7.074120998382568 L 1.59174919128418 11.87421131134033 C 1.436507225036621 11.9582986831665 1.268229484558105 11.99999904632568 1.100298881530762 11.99999904632568 C 0.8990659713745117 11.99999904632568 0.6983499526977539 11.9400806427002 0.5214195251464844 11.8214111328125 C 0.1980094909667969 11.60300064086914 -9.5367431640625e-07 11.21660137176514 -9.5367431640625e-07 10.80019092559814 L -9.5367431640625e-07 1.200020790100098 C 0.0003690719604492188 0.7842006683349609 0.1975297927856445 0.3980512619018555 0.5214195251464844 0.1788005828857422 C 0.6985197067260742 0.06000137329101563 0.8987293243408203 9.5367431640625e-07 1.100029945373535 9.5367431640625e-07 Z"/></g><path class="b" d="M0,0V11" transform="translate(13.5 0.5)"/></g></svg>